# xmcd
#
# Track frame offsets:
#	150
#	14976
#	30549
#	45669
#	61088
#	91370
#	106895
#	123644
#	136508
#	152972
#
# Disc length: 2225 seconds
# Revision: 0
# Processed by: cddbd v1.5.2PL0 Copyright (c) Steve Scherf et al.
# Submitted via: dBpowerAMP V12.0
#
DISCID=7f08af0a
DTITLE=Joe Sun - The Best of Joe Sun [Elektra] (L)
DYEAR=1982
DGENRE=Country
TTITLE0=Old Flames (Can't Hold A Candle To You)
TTITLE1=(Home Away From Home) I'll Find It Where I Can
TTITLE2=Midnight Train Memories
TTITLE3=Shotgun Rider
TTITLE4=Long Black Veil
TTITLE5=You Make Me Want To Sing
TTITLE6=Right And Dry
TTITLE7=The Blue Ribbon Blues 
TTITLE8=Out Of My Mind
TTITLE9=Bombed, Boozed And Busted
EXTD=
EXTT0=
EXTT1=
EXTT2=
EXTT3=
EXTT4=
EXTT5=
EXTT6=
EXTT7=
EXTT8=
EXTT9=
PLAYORDER=
